<svg id="Layer_1" data-name="Layer 1" fill="#e2e7ec"
    xmlns="http://www.w3.org/2000/svg" viewBox="0 0 1464.82 446.94">
    <defs>
        <style>.cls-1{fill:#fff0;}</style>
    </defs>
    <title>qbuild</title>
    <path class="cls-1" d="M1481.8,333.81v128H305.94a9.34,9.34,0,0,1,2.19-.8c9.59-1.12,19.23-1.84,28.75-3.35s18.77-3.76,27.91-5.64V436.25c-66,9.67-106.5-22.4-118.32-65.65,5.8-1.47,11.67-2.69,17.37-4.46,43.58-13.46,74.54-42.33,96.67-81.1,21.29-37.27,26.07-77.77,20.56-119.85C371.55,92.48,314,31.93,241.87,18.86c-8.6-1.56-17.27-2.68-25.91-4H1481.8v312c-2.58-.54-5.16-1.11-7.75-1.61-12.78-2.49-17.44-7.47-18.42-20.34-.52-7-.79-14-.8-20.95q-.07-122.7,0-245.4v-6.2h-95.64v9.46c23.42,1,30.88,5,30.7,32.52-.16,23.48.06,47,.11,70.46,0,1.09-.15,2.18-.24,3.31-.65-.13-1-.09-1.22-.27-1.46-1.36-2.92-2.73-4.3-4.18-18.09-19.08-40.21-24.7-65.27-18.61-27.28,6.62-45.87,24.12-57.63,49.07-15.1,32-17.33,65.71-10.82,100,4.68,24.71,15.7,46.19,35.57,62.46,20.58,16.85,62.63,25,89.89-3.34,4.44-4.6,9.7-8.41,14.11-12.18v30.74ZM401.14,345.32h6.3c48,0,96,.1,144-.07,12.48,0,25-.43,37.41-1.55,21.41-1.93,42-7.18,60.73-18.15,30.22-17.66,44.16-45,39.33-78.6-3.69-25.66-19.14-42.85-42.22-53-13.79-6.05-28.37-10.29-42.18-15.19,1.56-.48,3.9-1.23,6.26-1.93,14.57-4.33,28.82-9.49,41-18.9,15.73-12.17,24.47-28.31,23.83-48.26-1.07-33.18-24.3-61.78-56.49-70.84-21.39-6-43.42-6.61-65.38-6.75-49-.32-98-.1-147-.1h-5.57v8.31c7.77.85,15.41,1.25,22.88,2.6,11.23,2,17.7,9,19,20.15a202.36,202.36,0,0,1,1.35,22.41q.15,103.23,0,206.45a182.5,182.5,0,0,1-1.22,21.42c-1.51,12.59-8,19.33-20.61,21.44-7,1.17-14.13,1.52-21.4,2.27ZM711.51,129.67c-1,7.82-1,8,5.94,9.49,9.35,2.06,15.19,7.14,15.77,17.19.33,5.64,1.09,11.28,1.11,16.92.11,31-.18,62,.17,93A320.86,320.86,0,0,0,737,304.08c3.31,25.32,23.25,44.91,48.26,47.35,20.56,2,38.86-4.32,54.36-18,5.42-4.79,10.14-10.36,15.17-15.58l1.11.6v26.46h88.21v-8c-2.11-.41-4.06-.77-6-1.17-8.89-1.82-14.84-6.57-15.65-16.17-.59-7.12-1.38-14.26-1.39-21.4q-.18-81.22-.06-162.47v-6H833.15v8.17c1,.3,1.8.59,2.6.75,14.86,3,17.68,5.89,19.72,20.7a52.41,52.41,0,0,1,.46,7q.08,61.5.08,123a6.08,6.08,0,0,1-.64,3.34c-6.7,9.14-13.17,18.6-23.34,24.31-14.6,8.21-28.83,1.53-31.36-14.85a137.6,137.6,0,0,1-1.23-20.41q-.15-73-.05-146v-6Zm400.08-88.94c2.49.4,4.78.74,7.07,1.12,10.77,1.8,15.53,6.38,17.11,17.11A112.91,112.91,0,0,1,1137,74.87q.11,114.18,0,228.37c0,5.31-.64,10.62-1.12,15.92-.76,8.32-5.72,13.23-13.34,15.62-3.46,1.09-7.1,1.61-10.81,2.41v7.75h116.09v-8c-2.92-.47-5.7-.84-8.44-1.36-8.69-1.67-14.66-6.19-15.75-15.54-.63-5.44-1.52-10.9-1.52-16.36q-.15-132.42-.07-264.85V32.38h-90.41Zm-46.57,89H974.61v8.1c2.48.36,4.77.65,7,1,11.05,1.89,15.79,6.45,17.23,17.53a165.79,165.79,0,0,1,1.4,20.88q.19,60.19,0,120.4c0,7.13-.79,14.26-1.35,21.38-.69,8.59-5.89,13.46-13.74,15.79-3.44,1-7,1.59-10.89,2.44.13,2.68.25,5.23.36,7.69h116.06v-8.1c-2.58-.4-4.88-.71-7.18-1.11-10.73-1.86-15.18-5.89-16.93-16.62a126.81,126.81,0,0,1-1.54-19.86q-.16-81.67-.06-163.36ZM997,60.52a35.28,35.28,0,0,0,35.65,35.83,35.75,35.75,0,1,0,.17-71.5A35.35,35.35,0,0,0,997,60.52ZM885.11,406.58c1.48,2.24,2.41,3.55,3.26,4.93,9,14.57,18,29.19,27,43.7.93,1.48,2.66,3.21,4.21,3.42,3.7.5,7.52.16,11.42.16V392h-9.72v52c-1.41-2.15-2.4-3.6-3.33-5.1-9-14.56-18-29.15-27.09-43.67-.88-1.4-2.39-3.18-3.77-3.34-3.86-.46-7.82-.16-11.7-.16v66.76h9.68Zm562.16-14.75v51.91c-1.28-1.89-2-2.94-2.72-4-9.21-14.85-18.37-29.73-27.66-44.54-.88-1.4-2.39-3.18-3.78-3.34-3.88-.46-7.84-.16-11.74-.16v67h9.69V406.52c1.47,2.21,2.39,3.53,3.24,4.91,9,14.58,18,29.2,27.07,43.73.94,1.5,2.65,3.25,4.2,3.47,3.7.5,7.52.16,11.37.16v-67Zm-60.52,33.44h0a57,57,0,0,0,0-6c-1.17-10.58-4.92-19.79-14.8-25.17-20.58-11.2-43.94-.05-47.48,22.92-1.83,11.94-1.23,24,7.46,33.48,9.84,10.77,22.63,11.31,35.55,7.36s17.85-14.54,19.29-27.11A47.86,47.86,0,0,0,1386.75,425.27ZM558.38,391.06v67.47c8.91,0,17.6.73,26.11-.17,13.51-1.41,23.65-8.16,26.92-22.11A54.57,54.57,0,0,0,612.52,419c-1.27-13.48-9.09-23.57-21.33-25.72C580.54,391.37,569.51,391.71,558.38,391.06Zm548.14,3.56c-11.39-4.52-22.4-5.49-33.58-2.13-10.7,3.22-17.53,10.49-20.28,21.37a47.7,47.7,0,0,0,.4,25.15c2.82,9.78,9,16.7,19,19.35,10.92,2.88,21.8,1.62,32.47-1.57a4.13,4.13,0,0,0,2.36-3c.17-10.29.1-20.59.1-31.17h-24.73v9.25h13.57c0,5.12.18,9.61-.11,14.07a4.61,4.61,0,0,1-2.37,3.43c-15.68,4.78-28.26-3.42-30.21-19.53-2.62-21.54,12.19-34.14,33.07-28.12,2,.59,4,1.3,6.32,2.05C1103.78,400.92,1105,398.2,1106.52,394.62Zm-391.25,64V432.48c10-1.38,10-1.38,14.67,6.47l8,13.25c4.29,7.18,7.63,8.37,16.19,5.66q-9-14.28-18.06-28.47c2.08-1.3,3.82-2.28,5.43-3.44,6.41-4.62,8-11.14,7-18.54s-5.15-12.92-12.31-14c-10.52-1.59-21.27-1.67-31.95-2.4v67.61ZM1134,432.51c10.07-1.41,10.06-1.41,14.77,6.53,3.4,5.72,6.74,11.48,10.32,17.08a5.92,5.92,0,0,0,3.71,2.55c3.21.37,6.49.12,10.68.12l-18.66-29.4c1.74-1.06,3.36-1.9,4.83-3,6.46-4.64,8.72-11,7.66-18.76s-5.52-13.39-13-14.49c-10.23-1.5-20.68-1.46-31.13-2.09v67.37H1134Zm-585.24,25.9a4.33,4.33,0,0,0,0-1.44q-11.71-31.5-23.47-63c-1.84-4.92-6-1.94-9-2.6-2.4-.52-4.36,0-5.37,2.95-2.87,8.31-6,16.53-9.11,24.77-4.86,13-9.73,26.08-14.82,39.71a51.05,51.05,0,0,1,7,.05c3.86.6,5.62-1,6.7-4.65,1.37-4.56,2.14-10.77,5.39-12.91,3.52-2.34,9.59-.93,14.56-1,10.23-.07,10.23,0,13.68,9.53C537.81,459.72,537.81,459.72,548.79,458.41Zm687.36-.08c-.38-1.24-.7-2.5-1.15-3.71-7.36-19.8-14.92-39.52-22-59.42-1.53-4.32-4.18-3.94-7.3-3.89-3.34,0-6.48-.81-8.19,4-6.91,19.6-14.4,39-21.65,58.48-.55,1.49-.91,3.05-1.38,4.65,11.2,1,11.19,1,14.64-8.92.66-1.89,1.46-3.73,2-5.65.71-2.59,2.06-3.84,5-3.66,3.82.24,7.66.06,11.49.06,10.36,0,10.36,0,13.79,9.54s3.41,9.49,13.53,8.89A6.11,6.11,0,0,0,1236.15,458.33ZM775.49,433.8c2.92,0,5.43.32,7.82-.07,4.88-.78,10-1.23,14.48-3.11,8.57-3.62,11.39-11.12,11.06-20-.29-7.81-3.61-13.9-11.14-16.77-10.9-4.17-22.19-1.51-33.25-2.32v66.86h11Zm-86-32.89v-9H651.68v66.6h37.8v-9.25H663.11V428.43h24.7v-9.57H663.09V400.91Zm312.85,57.63H1040v-9.41H1013.8V428.37h24.56v-9.46h-24.68V401.05h26.25v-9H1002.3Zm-521.09-10.8c-12.14,1.86-25.83,7.46-33.35-7.71-5.26-10.6-5.25-22.35,2-32.3,8.23-11.37,19.51-7.72,30.46-3.74,1.36-3.11,2.6-5.93,3.8-8.69-21.85-12.78-47-1.47-50.55,22.81-3,20.82,3.76,44.49,35.53,41.53,1.65-.15,3.29-.46,4.93-.75C482.35,457.43,482.66,457,481.21,447.74ZM972.5,458.63V400.89h19.19V392h-50v9.19h19.5v57.43Zm284.85-57.57v57.38h11.46V400.83H1288V392h-50v9.05Zm52,57.49V391.92h-10.78v66.63Zm-452,.09V392H846.71v66.65Z" transform="translate(-16.98 -14.85)"/>
    <path d="M216,14.85c8.64,1.33,17.31,2.45,25.91,4C314,31.93,371.55,92.48,381.07,165.19c5.51,42.08.73,82.58-20.56,119.85-22.13,38.77-53.09,67.64-96.67,81.1-5.7,1.77-11.57,3-17.37,4.46,11.82,43.25,52.3,75.32,118.32,65.65V452c-9.14,1.88-18.46,4.15-27.91,5.64s-19.16,2.23-28.75,3.35a9.34,9.34,0,0,0-2.19.8H287a18.4,18.4,0,0,0-3.18-.83c-58.55-5.05-101.57-32.7-126.28-86.87-1.25-2.73-2.89-3.83-5.76-4.57C80.53,351.12,37,305.86,20.76,234.22c-1.67-7.37-2.54-14.92-3.78-22.39v-34c.75-5,1.46-10.07,2.26-15.1C31,89.33,86.6,32.21,159.53,18.75c8.43-1.55,16.95-2.61,25.43-3.9ZM108.05,195.31c1.33,17.25,2.08,34.57,4.11,51.73A199.53,199.53,0,0,0,132.66,315c28.14,55.08,106.81,54.35,134.58,1.51a189,189,0,0,0,19.65-57.81c6.95-42.61,5.82-85.29-.19-127.86-3.19-22.58-9.8-44-23-63.2-28.51-41.42-85.37-42.07-114.4-12.73C135.89,68.43,127,84.62,121.1,102.56,111.24,132.67,109,163.82,108.05,195.31Z" transform="translate(-16.98 -14.85)"/>
    <path d="M1481.8,333.81l-91.74,18V321.05c-4.41,3.77-9.67,7.58-14.11,12.18-27.26,28.3-69.31,20.19-89.89,3.34-19.87-16.27-30.89-37.75-35.57-62.46-6.51-34.32-4.28-68,10.82-100,11.76-25,30.35-42.45,57.63-49.07,25.06-6.09,47.18-.47,65.27,18.61,1.38,1.45,2.84,2.82,4.3,4.18.18.18.57.14,1.22.27.09-1.13.24-2.22.24-3.31,0-23.49-.27-47-.11-70.46.18-27.52-7.28-31.5-30.7-32.52V32.32h95.64v6.2q0,122.7,0,245.4c0,7,.28,14,.8,20.95,1,12.87,5.64,17.85,18.42,20.34,2.59.5,5.17,1.07,7.75,1.61ZM1390,235.5c0-16.15-.28-32.32.13-48.46a27.72,27.72,0,0,0-5.17-17.2c-6.73-9.78-14.32-18.42-26.08-22.22-14.28-4.6-25.08-.71-31.85,12.58a82.87,82.87,0,0,0-8,22.39c-5.84,32.21-5.28,64.6-.51,96.9,1.93,13.14,6.37,25.48,15,36,6.15,7.48,14.34,10.15,23.26,7.58a42.43,42.43,0,0,0,16.3-9c5.57-5.07,10-11.56,14.3-17.82a16.48,16.48,0,0,0,2.56-8.76C1390.1,270.15,1390,252.83,1390,235.5Z" transform="translate(-16.98 -14.85)"/>
    <path class="cls-1" d="M17,211.83c1.24,7.47,2.11,15,3.78,22.39,16.19,71.64,59.77,116.9,131,135.31,2.87.74,4.51,1.84,5.76,4.57,24.71,54.17,67.73,81.82,126.28,86.87a18.4,18.4,0,0,1,3.18.83H17Z" transform="translate(-16.98 -14.85)"/>
    <path class="cls-1" d="M185,14.85c-8.48,1.29-17,2.35-25.43,3.9C86.6,32.21,31,89.33,19.24,162.73c-.8,5-1.51,10.07-2.26,15.1v-163Z" transform="translate(-16.98 -14.85)"/>
    <path d="M401.14,345.32v-8.25c7.27-.75,14.4-1.1,21.4-2.27,12.61-2.11,19.1-8.85,20.61-21.44a182.5,182.5,0,0,0,1.22-21.42q.13-103.23,0-206.45A202.36,202.36,0,0,0,443,63.08C441.74,52,435.27,45,424,42.93c-7.47-1.35-15.11-1.75-22.88-2.6V32h5.57c49,0,98-.22,147,.1,22,.14,44,.74,65.38,6.75,32.19,9.06,55.42,37.66,56.49,70.84.64,20-8.1,36.09-23.83,48.26-12.18,9.41-26.43,14.57-41,18.9-2.36.7-4.7,1.45-6.26,1.93,13.81,4.9,28.39,9.14,42.18,15.19,23.08,10.11,38.53,27.3,42.22,53,4.83,33.63-9.11,60.94-39.33,78.6-18.76,11-39.32,16.22-60.73,18.15-12.42,1.12-24.93,1.51-37.41,1.55-48,.17-96,.07-144,.07ZM517.85,190.94c-.18,1.92-.41,3.2-.41,4.49,0,36.29-.09,72.58,0,108.87,0,15.11,8.4,23.47,23.66,23.48,25.8,0,46.79-9.18,59.48-32.89,7.32-13.66,9.12-28.48,7.17-43.62-2.69-20.89-11.08-38.85-30.08-49.77C559.19,190.88,538.46,191.85,517.85,190.94Zm0-141V172.81c14.77.15,29.11-.44,42.72-5.32,17.67-6.32,30.22-18.26,34.71-36.88a96.56,96.56,0,0,0,2.3-24.71c-.63-24.73-13.65-43.33-35.1-50.69C548.15,50.28,533.16,50,517.85,49.9Z" transform="translate(-16.98 -14.85)"/>
    <path d="M711.51,129.67h87.88v6q0,73,.05,146A137.6,137.6,0,0,0,800.67,302c2.53,16.38,16.76,23.06,31.36,14.85,10.17-5.71,16.64-15.17,23.34-24.31a6.08,6.08,0,0,0,.64-3.34q0-61.49-.08-123a52.41,52.41,0,0,0-.46-7c-2-14.81-4.86-17.73-19.72-20.7-.8-.16-1.58-.45-2.6-.75v-8.17H921v6q0,81.24.06,162.47c0,7.14.8,14.28,1.39,21.4.81,9.6,6.76,14.35,15.65,16.17,1.94.4,3.89.76,6,1.17v8H855.93V318.45l-1.11-.6c-5,5.22-9.75,10.79-15.17,15.58-15.5,13.68-33.8,20-54.36,18-25-2.44-44.95-22-48.26-47.35a320.86,320.86,0,0,1-2.53-37.83c-.35-31-.06-62-.17-93,0-5.64-.78-11.28-1.11-16.92-.58-10-6.42-15.13-15.77-17.19C710.47,137.62,710.5,137.49,711.51,129.67Z" transform="translate(-16.98 -14.85)"/>
    <path d="M1111.59,40.73V32.38H1202v6.49q0,132.42.07,264.85c0,5.46.89,10.92,1.52,16.36,1.09,9.35,7.06,13.87,15.75,15.54,2.74.52,5.52.89,8.44,1.36v8H1111.69v-7.75c3.71-.8,7.35-1.32,10.81-2.41,7.62-2.39,12.58-7.3,13.34-15.62.48-5.3,1.11-10.61,1.12-15.92q.11-114.18,0-228.37A112.91,112.91,0,0,0,1135.77,59c-1.58-10.73-6.34-15.31-17.11-17.11C1116.37,41.47,1114.08,41.13,1111.59,40.73Z" transform="translate(-16.98 -14.85)"/>
    <path d="M1065,129.77V136q0,81.67.06,163.36a126.81,126.81,0,0,0,1.54,19.86c1.75,10.73,6.2,14.76,16.93,16.62,2.3.4,4.6.71,7.18,1.11V345H974.67c-.11-2.46-.23-5-.36-7.69,3.87-.85,7.45-1.41,10.89-2.44,7.85-2.33,13-7.2,13.74-15.79.56-7.12,1.33-14.25,1.35-21.38q.19-60.2,0-120.4a165.79,165.79,0,0,0-1.4-20.88c-1.44-11.08-6.18-15.64-17.23-17.53-2.28-.39-4.57-.68-7-1v-8.1Z" transform="translate(-16.98 -14.85)"/>
    <path d="M997,60.52a35.35,35.35,0,0,1,35.82-35.67,35.75,35.75,0,1,1-.17,71.5A35.28,35.28,0,0,1,997,60.52Z" transform="translate(-16.98 -14.85)"/>
    <path d="M885.11,406.58v51.85h-9.68V391.67c3.88,0,7.84-.3,11.7.16,1.38.16,2.89,1.94,3.77,3.34C900,409.69,909,424.28,918,438.84c.93,1.5,1.92,3,3.33,5.1V392H931v66.81c-3.9,0-7.72.34-11.42-.16-1.55-.21-3.28-1.94-4.21-3.42-9.09-14.51-18-29.13-27-43.7C887.52,410.13,886.59,408.82,885.11,406.58Z" transform="translate(-16.98 -14.85)"/>
    <path d="M1447.27,391.83h9.67v67c-3.85,0-7.67.34-11.37-.16-1.55-.22-3.26-2-4.2-3.47-9.1-14.53-18.06-29.15-27.07-43.73-.85-1.38-1.77-2.7-3.24-4.91v52.11h-9.69v-67c3.9,0,7.86-.3,11.74.16,1.39.16,2.9,1.94,3.78,3.34,9.29,14.81,18.45,29.69,27.66,44.54.68,1.09,1.44,2.14,2.72,4Z" transform="translate(-16.98 -14.85)"/>
    <path d="M1386.75,425.27a47.86,47.86,0,0,1,0,5.49c-1.44,12.57-6.28,23.14-19.29,27.11s-25.71,3.41-35.55-7.36c-8.69-9.5-9.29-21.54-7.46-33.48,3.54-23,26.9-34.12,47.48-22.92,9.88,5.38,13.63,14.59,14.8,25.17a57,57,0,0,1,0,6Zm-11.41-.69c-.6-3.54-.89-7.73-2-11.67-2.43-8.31-8.76-12.77-17.49-12.92-9-.15-16.15,4.11-18,12.67a64.92,64.92,0,0,0-.94,21.58c1.36,10.62,8.22,15.85,18.38,16s16.52-5.14,18.79-15.63C1374.69,431.52,1374.86,428.35,1375.34,424.58Z" transform="translate(-16.98 -14.85)"/>
    <path d="M558.38,391.06c11.13.65,22.16.31,32.81,2.18,12.24,2.15,20.06,12.24,21.33,25.72a54.57,54.57,0,0,1-1.11,17.29C608.14,450.2,598,457,584.49,458.36c-8.51.9-17.2.17-26.11.17Zm11,10.07v48.46c10.41-.2,20.82.86,27.72-8.94,5.46-7.78,5.46-23.5,0-31.36C590.17,399.21,579.7,401.05,569.38,401.13Z" transform="translate(-16.98 -14.85)"/>
    <path d="M1106.52,394.62c-1.56,3.58-2.74,6.3-4,9.17-2.29-.75-4.29-1.46-6.32-2.05-20.88-6-35.69,6.58-33.07,28.12,1.95,16.11,14.53,24.31,30.21,19.53a4.61,4.61,0,0,0,2.37-3.43c.29-4.46.11-8.95.11-14.07h-13.57v-9.25H1107c0,10.58.07,20.88-.1,31.17a4.13,4.13,0,0,1-2.36,3c-10.67,3.19-21.55,4.45-32.47,1.57-10-2.65-16.19-9.57-19-19.35a47.7,47.7,0,0,1-.4-25.15c2.75-10.88,9.58-18.15,20.28-21.37C1084.12,389.13,1095.13,390.1,1106.52,394.62Z" transform="translate(-16.98 -14.85)"/>
    <path d="M715.27,458.62h-11V391c10.68.73,21.43.81,31.95,2.4,7.16,1.08,11.32,6.66,12.31,14s-.62,13.92-7,18.54c-1.61,1.16-3.35,2.14-5.43,3.44q9,14.22,18.06,28.47c-8.56,2.71-11.9,1.52-16.19-5.66l-8-13.25c-4.71-7.85-4.7-7.85-14.67-6.47Zm0-36.28c10.88,1.41,18.48,0,20.24-5,1.23-3.5,1.55-8.94-.38-11.59-4.85-6.66-12.68-4.41-19.86-4.71Z" transform="translate(-16.98 -14.85)"/>
    <path d="M1134,432.51v25.95h-10.87V391.09c10.45.63,20.9.59,31.13,2.09,7.53,1.1,12,6.62,13,14.49s-1.2,14.12-7.66,18.76c-1.47,1.06-3.09,1.9-4.83,3l18.66,29.4c-4.19,0-7.47.25-10.68-.12a5.92,5.92,0,0,1-3.71-2.55c-3.58-5.6-6.92-11.36-10.32-17.08C1144.09,431.1,1144.1,431.1,1134,432.51Zm.24-9.6c7.31-.64,15.15,1.85,20.2-5.44a9.62,9.62,0,0,0-.21-11.72c-5.28-6.48-12.78-4.48-20-4.68Z" transform="translate(-16.98 -14.85)"/>
    <path d="M548.79,458.41c-11,1.31-11,1.31-14.54-8.55-3.45-9.55-3.45-9.6-13.68-9.53-5,0-11-1.38-14.56,1-3.25,2.14-4,8.35-5.39,12.91-1.08,3.62-2.84,5.25-6.7,4.65a51.05,51.05,0,0,0-7-.05c5.09-13.63,10-26.67,14.82-39.71,3.07-8.24,6.24-16.46,9.11-24.77,1-2.94,3-3.47,5.37-2.95,3,.66,7.2-2.32,9,2.6q11.73,31.5,23.47,63A4.33,4.33,0,0,1,548.79,458.41Zm-39.91-28.13h18.78c-3.15-9.3-6.13-18.12-9.38-27.74C515,412.2,512,421.07,508.88,430.28Z" transform="translate(-16.98 -14.85)"/>
    <path d="M1236.15,458.33a6.11,6.11,0,0,1-1.23.41c-10.12.6-10.12.59-13.53-8.89s-3.43-9.54-13.79-9.54c-3.83,0-7.67.18-11.49-.06-2.9-.18-4.25,1.07-5,3.66-.53,1.92-1.33,3.76-2,5.65-3.45,9.88-3.44,9.88-14.64,8.92.47-1.6.83-3.16,1.38-4.65,7.25-19.48,14.74-38.88,21.65-58.48,1.71-4.85,4.85-4,8.19-4,3.12-.05,5.77-.43,7.3,3.89,7,19.9,14.6,39.62,22,59.42C1235.45,455.83,1235.77,457.09,1236.15,458.33Zm-30.78-55.8L1196,430.4h18.86C1211.68,421.13,1208.65,412.22,1205.37,402.53Z" transform="translate(-16.98 -14.85)"/>
    <path d="M775.49,433.8v24.62h-11V391.56c11.06.81,22.35-1.85,33.25,2.32,7.53,2.87,10.85,9,11.14,16.77.33,8.85-2.49,16.35-11.06,20-4.48,1.88-9.6,2.33-14.48,3.11C780.92,434.12,778.41,433.8,775.49,433.8Zm.38-32.73v23.34c7.43-.64,15.23,1.4,19.86-6a10.86,10.86,0,0,0-.4-12.7C790.24,399.17,782.87,401.26,775.87,401.07Z" transform="translate(-16.98 -14.85)"/>
    <path d="M689.45,400.91H663.09v17.95h24.72v9.57h-24.7v20.85h26.37v9.25h-37.8v-66.6h37.77Z" transform="translate(-16.98 -14.85)"/>
    <path d="M1002.3,458.54V392.07h37.63v9h-26.25v17.86h24.68v9.46H1013.8v20.76H1040v9.41Z" transform="translate(-16.98 -14.85)"/>
    <path d="M481.21,447.74c1.45,9.22,1.14,9.69-7.22,11.15-1.64.29-3.28.6-4.93.75-31.77,3-38.58-20.71-35.53-41.53,3.57-24.28,28.7-35.59,50.55-22.81-1.2,2.76-2.44,5.58-3.8,8.69-10.95-4-22.23-7.63-30.46,3.74-7.21,9.95-7.22,21.7-2,32.3C455.38,455.2,469.07,449.6,481.21,447.74Z" transform="translate(-16.98 -14.85)"/>
    <path d="M972.5,458.63H961.21V401.2h-19.5V392h50v8.88H972.5Z" transform="translate(-16.98 -14.85)"/>
    <path d="M1257.35,401.06H1238V392h50v8.82h-19.16v57.61h-11.46Z" transform="translate(-16.98 -14.85)"/>
    <path d="M1309.37,458.55h-10.78V391.92h10.78Z" transform="translate(-16.98 -14.85)"/>
    <path d="M857.36,458.64H846.71V392h10.65Z" transform="translate(-16.98 -14.85)"/>
    <path class="cls-1" d="M108.05,195.31c.94-31.49,3.19-62.64,13-92.75,5.87-17.94,14.79-34.13,28.2-47.68,29-29.34,85.89-28.69,114.4,12.73,13.2,19.17,19.81,40.62,23,63.2,6,42.57,7.14,85.25.19,127.86a189,189,0,0,1-19.65,57.81C239.47,369.32,160.8,370.05,132.66,315A199.53,199.53,0,0,1,112.16,247C110.13,229.88,109.38,212.56,108.05,195.31Z" transform="translate(-16.98 -14.85)"/>
    <path class="cls-1" d="M1390,235.5c0,17.33.12,34.65-.12,52a16.48,16.48,0,0,1-2.56,8.76c-4.35,6.26-8.73,12.75-14.3,17.82a42.43,42.43,0,0,1-16.3,9c-8.92,2.57-17.11-.1-23.26-7.58-8.61-10.48-13-22.82-15-36-4.77-32.3-5.33-64.69.51-96.9a82.87,82.87,0,0,1,8-22.39c6.77-13.29,17.57-17.18,31.85-12.58,11.76,3.8,19.35,12.44,26.08,22.22a27.72,27.72,0,0,1,5.17,17.2C1389.7,203.18,1390,219.35,1390,235.5Z" transform="translate(-16.98 -14.85)"/>
    <path class="cls-1" d="M517.85,190.94c20.61.91,41.34-.06,59.84,10.56,19,10.92,27.39,28.88,30.08,49.77,2,15.14.15,30-7.17,43.62-12.69,23.71-33.68,32.9-59.48,32.89-15.26,0-23.61-8.37-23.66-23.48-.11-36.29,0-72.58,0-108.87C517.44,194.14,517.67,192.86,517.85,190.94Z" transform="translate(-16.98 -14.85)"/>
    <path class="cls-1" d="M517.85,49.9c15.31.14,30.3.38,44.63,5.31,21.45,7.36,34.47,26,35.1,50.69a96.56,96.56,0,0,1-2.3,24.71c-4.49,18.62-17,30.56-34.71,36.88-13.61,4.88-28,5.47-42.72,5.32Z" transform="translate(-16.98 -14.85)"/>
    <path class="cls-1" d="M1375.34,424.58c-.48,3.77-.65,6.94-1.31,10-2.27,10.49-8.69,15.74-18.79,15.63s-17-5.35-18.38-16a64.92,64.92,0,0,1,.94-21.58c1.86-8.56,9-12.82,18-12.67,8.73.15,15.06,4.61,17.49,12.92C1374.45,416.85,1374.74,421,1375.34,424.58Z" transform="translate(-16.98 -14.85)"/>
    <path class="cls-1" d="M569.38,401.13c10.32-.08,20.79-1.92,27.75,8.16,5.43,7.86,5.43,23.58,0,31.36-6.9,9.8-17.31,8.74-27.72,8.94Z" transform="translate(-16.98 -14.85)"/>
    <path class="cls-1" d="M715.27,422.34V401c7.18.3,15-1.95,19.86,4.71,1.93,2.65,1.61,8.09.38,11.59C733.75,422.31,726.15,423.75,715.27,422.34Z" transform="translate(-16.98 -14.85)"/>
    <path class="cls-1" d="M1134.27,422.91V401.07c7.21.2,14.71-1.8,20,4.68a9.62,9.62,0,0,1,.21,11.72C1149.42,424.76,1141.58,422.27,1134.27,422.91Z" transform="translate(-16.98 -14.85)"/>
    <path class="cls-1" d="M508.88,430.28c3.12-9.21,6.12-18.08,9.4-27.74,3.25,9.62,6.23,18.44,9.38,27.74Z" transform="translate(-16.98 -14.85)"/>
    <path class="cls-1" d="M1205.37,402.53c3.28,9.69,6.31,18.6,9.45,27.87H1196Z" transform="translate(-16.98 -14.85)"/>
    <path class="cls-1" d="M775.87,401.07c7,.19,14.37-1.9,19.46,4.67a10.86,10.86,0,0,1,.4,12.7c-4.63,7.37-12.43,5.33-19.86,6Z" transform="translate(-16.98 -14.85)"/>
</svg>