<?xml version="1.0" standalone="no"?>
<!DOCTYPE svg PUBLIC "-//W3C//DTD SVG 20010904//EN"
 "http://www.w3.org/TR/2001/REC-SVG-20010904/DTD/svg10.dtd">
<svg version="1.0" xmlns="http://www.w3.org/2000/svg"
 width="600.000000pt" height="67.000000pt" viewBox="0 0 600.000000 67.000000"
 preserveAspectRatio="xMidYMid meet">
<metadata>
Created by potrace 1.16, written by Peter Selinger 2001-2019
</metadata>
<g transform="translate(0.000000,67.000000) scale(0.100000,-0.100000)"
fill="#FFFFFF" stroke="none">
<path d="M253 655 c-97 -21 -152 -56 -178 -116 -21 -45 -16 -115 10 -155 26
-39 108 -71 242 -94 149 -25 192 -39 217 -74 19 -25 19 -29 5 -54 -20 -36 -42
-39 -249 -41 -96 -1 -181 -5 -188 -10 -16 -9 -33 -77 -25 -97 7 -20 342 -19
434 0 134 29 199 85 207 179 8 111 -65 161 -298 202 -167 30 -190 41 -190 89
0 57 12 60 230 66 225 6 230 7 230 76 l0 44 -192 -1 c-121 0 -216 -6 -255 -14z"/>
<path d="M890 596 l0 -76 305 0 305 0 0 44 c0 33 -6 52 -24 73 l-24 28 -281 3
-281 3 0 -75z"/>
<path d="M1660 382 c0 -159 3 -304 6 -321 8 -40 25 -48 108 -57 l66 -7 0 237
c0 130 3 236 8 235 4 0 88 -98 186 -218 99 -120 189 -224 200 -231 12 -8 65
-15 118 -18 l98 -5 0 338 0 338 -75 -5 c-41 -3 -81 -11 -90 -18 -13 -10 -15
-46 -15 -226 0 -118 -4 -214 -9 -214 -4 0 -85 93 -178 208 -94 114 -181 216
-193 227 -18 17 -39 21 -126 23 l-104 4 0 -290z"/>
<path d="M2805 656 c-114 -23 -174 -68 -195 -146 -22 -81 22 -154 110 -185 25
-9 99 -25 165 -36 143 -24 202 -47 211 -83 18 -73 -20 -86 -258 -86 -171 0
-177 -1 -192 -22 -9 -12 -16 -39 -16 -60 l0 -38 177 0 c189 0 284 11 349 42
91 42 135 119 114 197 -22 84 -100 125 -295 156 -173 27 -216 55 -187 119 14
32 45 36 246 36 94 0 176 4 183 8 15 10 33 57 33 88 l0 24 -192 -1 c-107 -1
-220 -6 -253 -13z"/>
<path d="M3370 652 c-13 -11 -23 -33 -27 -60 l-6 -42 122 0 121 0 0 -253 c0
-299 -5 -286 106 -290 l69 -2 3 273 2 272 95 0 c113 0 135 13 135 80 l0 40
-299 0 c-270 0 -301 -2 -321 -18z"/>
<path d="M4260 657 c-18 -9 -69 -97 -192 -332 l-167 -320 67 -3 c38 -1 86 3
107 10 34 11 45 23 75 78 l35 65 113 5 c129 6 142 13 142 82 l0 38 -95 0 c-69
0 -95 3 -95 13 0 6 27 66 59 132 l59 120 25 -55 c100 -222 226 -468 243 -474
27 -11 194 -20 194 -11 0 5 -15 36 -34 69 -18 34 -84 160 -146 281 -137 266
-154 293 -186 305 -36 14 -175 12 -204 -3z"/>
<path d="M4922 654 c-22 -15 -22 -16 -22 -319 0 -351 -8 -326 107 -329 l64 -1
2 270 2 270 58 3 c83 4 196 -14 226 -36 34 -25 41 -88 13 -123 -19 -22 -28
-24 -132 -27 -127 -5 -132 -8 -106 -76 12 -31 49 -75 130 -154 129 -126 147
-135 278 -130 l82 3 -139 120 -138 120 53 8 c62 9 111 36 142 79 16 24 22 49
26 107 3 70 1 79 -24 118 -57 86 -160 113 -428 113 -139 0 -176 -3 -194 -16z"/>
<path d="M890 346 l0 -66 270 0 270 0 0 39 c0 23 -8 48 -19 62 -19 24 -20 24
-270 27 l-251 3 0 -65z"/>
<path d="M5785 220 c-85 -35 -94 -157 -16 -203 100 -59 213 54 154 154 -28 47
-90 69 -138 49z m113 -45 c72 -84 -44 -203 -131 -135 -50 39 -43 125 12 155
36 21 91 12 119 -20z"/>
<path d="M890 80 l0 -70 306 0 307 0 -6 46 c-3 29 -13 54 -26 68 -21 20 -31
21 -301 24 l-280 3 0 -71z"/>
</g>
</svg>
