<svg id="Layer_1" xmlns="http://www.w3.org/2000/svg" xmlns:xlink="http://www.w3.org/1999/xlink"
	 viewBox="0 0 424.17 115.83" fill="#e2e7ec">
<style type="text/css">
	.st1{fill:none;stroke:#e2e7ec;stroke-width:7;stroke-miterlimit:10;}
</style>
<polygon class="st0" points="15.95,56.05 28.96,56.05 38.35,36.29 52.53,95.09 58.21,93.91 66.52,55.66 84.91,55.66 83.84,49.89 
	61.53,49.89 55.08,79.34 42.85,25.92 34.24,27.98 25.63,50.28 15.95,50.28 "/>
<circle class="st1" cx="50.58" cy="60.65" r="35.88"/>
<g>
	<g>
		<path class="st0" d="M103.06,72.65c1.95,1.28,5.41,2.63,8.72,2.63c4.81,0,7.06-2.4,7.06-5.41c0-3.16-1.88-4.88-6.76-6.69
			c-6.54-2.33-9.62-5.93-9.62-10.29c0-5.86,4.73-10.67,12.55-10.67c3.68,0,6.91,1.05,8.94,2.25l-1.65,4.81
			c-1.43-0.9-4.06-2.1-7.44-2.1c-3.91,0-6.09,2.25-6.09,4.96c0,3.01,2.18,4.36,6.91,6.16c6.31,2.4,9.54,5.56,9.54,10.97
			c0,6.39-4.96,10.89-13.6,10.89c-3.98,0-7.66-0.98-10.22-2.48L103.06,72.65z"/>
		<path class="st0" d="M133.72,26.06h6.61v22.69h0.15c1.05-1.88,2.7-3.53,4.73-4.66c1.95-1.13,4.28-1.88,6.76-1.88
			c4.88,0,12.7,3.01,12.7,15.55v21.64h-6.61V58.52c0-5.86-2.18-10.82-8.42-10.82c-4.28,0-7.66,3.01-8.87,6.61
			c-0.38,0.9-0.45,1.88-0.45,3.16v21.94h-6.61V26.06z"/>
		<path class="st0" d="M208.33,60.93c0,13.45-9.32,19.31-18.11,19.31c-9.84,0-17.43-7.21-17.43-18.71
			c0-12.17,7.96-19.31,18.03-19.31C201.26,42.22,208.33,49.81,208.33,60.93z M179.47,61.3c0,7.96,4.58,13.97,11.04,13.97
			c6.31,0,11.04-5.94,11.04-14.12c0-6.16-3.08-13.97-10.89-13.97C182.85,47.18,179.47,54.39,179.47,61.3z"/>
		<path class="st0" d="M216.67,54.92c0-4.66-0.15-8.42-0.3-11.87h5.94l0.3,6.24h0.15c2.71-4.43,6.99-7.06,12.92-7.06
			c8.79,0,15.4,7.44,15.4,18.48c0,13.07-7.96,19.53-16.53,19.53c-4.81,0-9.02-2.1-11.2-5.71h-0.15v19.76h-6.54V54.92z M223.2,64.61
			c0,0.98,0.15,1.88,0.3,2.71c1.2,4.58,5.18,7.74,9.92,7.74c6.99,0,11.04-5.71,11.04-14.05c0-7.29-3.83-13.52-10.82-13.52
			c-4.51,0-8.71,3.23-9.99,8.19c-0.23,0.83-0.45,1.8-0.45,2.7V64.61z"/>
		<path class="st0" d="M259.42,26.06h6.61v53.34h-6.61V26.06z"/>
		<path class="st0" d="M310.06,60.93c0,13.45-9.32,19.31-18.11,19.31c-9.84,0-17.43-7.21-17.43-18.71
			c0-12.17,7.96-19.31,18.03-19.31C302.99,42.22,310.06,49.81,310.06,60.93z M281.21,61.3c0,7.96,4.58,13.97,11.04,13.97
			c6.31,0,11.04-5.94,11.04-14.12c0-6.16-3.08-13.97-10.89-13.97C284.59,47.18,281.21,54.39,281.21,61.3z"/>
		<path class="st0" d="M349.73,43.04c-0.15,2.63-0.3,5.56-0.3,9.99v21.11c0,8.34-1.65,13.45-5.18,16.61
			c-3.53,3.31-8.64,4.36-13.22,4.36c-4.36,0-9.17-1.05-12.1-3.01l1.65-5.03c2.4,1.5,6.16,2.85,10.67,2.85
			c6.76,0,11.72-3.53,11.72-12.7v-4.06h-0.15c-2.03,3.38-5.94,6.09-11.57,6.09c-9.02,0-15.48-7.66-15.48-17.73
			c0-12.32,8.04-19.31,16.38-19.31c6.31,0,9.77,3.31,11.35,6.31h0.15l0.3-5.48H349.73z M342.89,57.39c0-1.13-0.08-2.1-0.38-3.01
			c-1.2-3.83-4.43-6.99-9.24-6.99c-6.31,0-10.82,5.33-10.82,13.75c0,7.14,3.61,13.07,10.74,13.07c4.06,0,7.74-2.55,9.17-6.76
			c0.38-1.13,0.53-2.4,0.53-3.53V57.39z"/>
		<path class="st0" d="M367.31,32.83c0.08,2.25-1.58,4.06-4.21,4.06c-2.33,0-3.98-1.8-3.98-4.06c0-2.33,1.73-4.13,4.13-4.13
			C365.73,28.69,367.31,30.5,367.31,32.83z M359.95,79.41V43.04h6.61v36.36H359.95z"/>
		<path class="st0" d="M380.61,43.04l5.18,7.81c1.35,2.03,2.48,3.91,3.68,5.94h0.22c1.2-2.18,2.4-4.06,3.61-6.01l5.11-7.74h7.14
			l-12.4,17.58l12.77,18.78h-7.51l-5.33-8.19c-1.43-2.1-2.63-4.13-3.91-6.31h-0.15c-1.2,2.18-2.48,4.13-3.83,6.31l-5.26,8.19h-7.29
			l12.92-18.56l-12.32-17.81H380.61z"/>
	</g>
</g>
</svg>
